<svg xmlns="http://www.w3.org/2000/svg" version="1.1" viewBox="27 153.83 945.49 211.22"><path d="M 109.685 154.649 C 109.308 155.025, 109 172.133, 109 192.667 L 109 230 68 230 L 27 230 27 258 L 27 286 66 286 L 105 286 105 324.500 L 105 363 133 363 C 158.972 363, 161.005 362.873, 161.072 361.250 C 161.112 360.288, 161.225 341.950, 161.322 320.500 L 161.500 281.500 200 281 L 238.500 280.500 238.793 261 C 238.954 250.275, 238.821 240.037, 238.498 238.250 L 237.909 235 202.690 235 C 169.118 235, 167.284 235.096, 163.485 237.055 C 161.293 238.185, 158.030 240.743, 156.234 242.740 C 150.177 249.472, 150 251.220, 150 304.182 L 150 352 133.012 352 L 116.024 352 115.762 313.750 L 115.500 275.500 76.750 275.238 L 38 274.977 38 257.988 L 38 241 87.322 241 C 142.217 241, 142.652 240.954, 149.411 234.389 C 156.680 227.330, 156.500 228.470, 156.500 189.500 L 156.500 154.500 133.435 154.232 C 120.749 154.085, 110.061 154.272, 109.685 154.649 M 277.060 156.651 C 275.026 159.237, 274.981 160.147, 275.237 193.401 L 275.500 227.500 303 227.781 C 318.125 227.935, 331.512 227.814, 332.750 227.512 C 334.734 227.027, 335 226.330, 335 221.616 C 335 217.722, 334.437 215.554, 332.927 213.635 L 330.855 211 313.927 211 L 297 211 297 204.500 L 297 198 313 198 L 329 198 329 192.174 C 329 187.378, 328.591 185.965, 326.686 184.174 C 324.542 182.161, 323.361 182, 310.686 182 L 297 182 297 176.522 L 297 171.044 315.750 170.772 L 334.500 170.500 334.794 164.941 C 335.029 160.501, 334.662 158.840, 332.972 156.691 L 330.855 154 305 154 L 279.145 154 277.060 156.651 M 345.189 180.250 L 345.500 206.500 348.311 212.224 C 353.608 223.010, 364.546 229.014, 378.855 228.988 C 394.422 228.960, 404.559 223.451, 410.795 211.628 L 413.500 206.500 413.811 180.250 L 414.121 154 405.561 154 C 392.598 154, 393 153.206, 393 178.788 C 393 198.358, 392.868 199.837, 390.750 204.035 C 388.203 209.082, 385.211 210.964, 379.700 210.985 C 374.650 211.005, 370.425 208.690, 368.288 204.733 C 366.829 202.031, 366.457 197.835, 366.021 179.167 C 365.402 152.641, 366.092 154, 353.248 154 L 344.879 154 345.189 180.250 M 426.127 156.566 C 424.006 159.262, 423.978 159.812, 424.237 193.401 L 424.500 227.500 430.500 227.820 C 438.370 228.239, 443.348 226.726, 444.835 223.462 C 445.476 222.056, 446 218.002, 446 214.453 L 446 208 450.928 208 L 455.856 208 462.722 217.750 L 469.588 227.500 479.957 227.787 C 485.660 227.945, 490.674 227.720, 491.098 227.287 C 491.523 226.854, 488.542 221.600, 484.473 215.611 L 477.076 204.723 481.431 201.397 C 487.773 196.554, 490.508 190.381, 490.467 181 C 490.442 175.313, 489.920 172.533, 488.305 169.500 C 485.418 164.077, 480.507 159.564, 474.500 156.812 C 469.904 154.707, 467.835 154.494, 448.890 154.175 L 428.280 153.829 426.127 156.566 M 503 156 C 501.076 157.924, 501 159.333, 501 193.015 L 501 228.030 530.250 227.765 L 559.500 227.500 559.804 221.003 C 560.263 211.197, 559.852 211, 538.889 211 L 522 211 522 204.525 L 522 198.050 538.250 197.775 L 554.500 197.500 554.470 191.637 C 554.423 182.627, 553.214 182, 535.889 182 L 522 182 522 176.500 L 522 171 541 171 L 560 171 560 164.057 C 560 153.702, 560.882 154, 530.277 154 C 506.333 154, 504.895 154.105, 503 156 M 572.908 155.873 L 570.500 157.822 570.500 192.661 L 570.500 227.500 576.500 227.820 C 584.473 228.245, 589.816 226.614, 591.045 223.381 C 591.570 222, 592 218.062, 592 214.631 C 592 208.799, 592.231 208.168, 595.544 204.958 C 597.701 202.867, 599.364 201.930, 599.794 202.564 C 600.182 203.136, 604.921 209.093, 610.324 215.802 L 620.149 228 632.074 228 C 638.633 228, 643.988 227.662, 643.973 227.250 C 643.958 226.838, 637.020 217.529, 628.555 206.564 L 613.164 186.628 618.832 180.461 C 621.949 177.070, 628.438 170.014, 633.250 164.781 C 638.063 159.549, 642 154.983, 642 154.634 C 642 154.285, 636.908 154, 630.685 154 L 619.370 154 605.935 168.185 L 592.500 182.370 592 168.435 L 591.500 154.500 583.408 154.212 C 576.603 153.970, 574.932 154.234, 572.908 155.873 M 678.724 155.250 C 676.770 156.723, 645.853 225.952, 646.605 227.170 C 647.330 228.343, 662.332 228.205, 665.512 226.996 C 667.404 226.276, 668.882 224.303, 670.719 220.045 L 673.284 214.100 687.892 213.800 C 696.676 213.620, 702.935 213.899, 703.590 214.500 C 704.189 215.050, 705.468 217.647, 706.431 220.271 C 708.778 226.668, 711.539 228, 722.450 228 C 727.926 228, 731 227.610, 731 226.916 C 731 225.885, 703.336 162.527, 700.364 156.750 C 698.974 154.049, 698.783 154, 689.665 154 C 683.790 154, 679.773 154.459, 678.724 155.250 M 446 181 L 446 191 454.577 191 C 462.723 191, 463.301 190.853, 466.077 188.077 C 468.014 186.140, 469 184.138, 469 182.142 C 469 174.033, 464.654 171, 453.032 171 L 446 171 446 181 M 684.281 186.249 L 680.231 196.500 684.645 196.806 C 687.074 196.974, 690.801 196.974, 692.928 196.806 L 696.796 196.500 692.810 186.500 C 690.617 181, 688.713 176.387, 688.577 176.249 C 688.442 176.110, 686.508 180.610, 684.281 186.249 M 424.069 242.027 C 399.217 247.248, 381.441 263.174, 374.372 286.552 C 373.093 290.783, 372.587 295.675, 372.618 303.500 C 372.656 312.789, 373.087 315.744, 375.394 322.500 C 381.807 341.279, 394.468 353.860, 414.392 361.251 C 425.069 365.212, 443.355 366.234, 455.437 363.546 C 479.181 358.264, 497.935 340.879, 503.626 318.876 C 505.794 310.493, 505.759 295.442, 503.552 287.080 C 498.284 267.123, 483.258 251.380, 462.976 244.567 C 455.726 242.132, 452.620 241.675, 441.500 241.408 C 434.350 241.236, 426.506 241.515, 424.069 242.027 M 906.462 242.409 C 882.531 247.874, 868.490 265.437, 872.063 285.438 C 873.413 292.994, 876.626 298.620, 882.587 303.868 C 888.225 308.831, 893.694 310.940, 915.111 316.410 C 935.178 321.536, 938.378 323.139, 938.810 328.285 C 939.456 335.991, 932.131 338.852, 914.560 337.755 C 908.779 337.395, 903.219 336.160, 895.511 333.527 C 885.093 329.967, 884.487 329.874, 881.385 331.354 C 878.815 332.579, 877.298 334.677, 874.071 341.469 C 871.832 346.182, 870 350.682, 870 351.468 C 870 353.238, 880.148 358.124, 889.500 360.858 C 899.814 363.874, 908.164 364.984, 920.590 364.992 C 944.546 365.009, 962.809 356.171, 969.849 341.155 C 972.136 336.276, 972.499 334.197, 972.494 326 C 972.487 314.878, 971.124 311.292, 964.376 304.639 C 958.188 298.538, 951.595 295.582, 935 291.468 C 915.568 286.650, 910.911 285.124, 908.250 282.700 C 903.746 278.599, 906.629 271.268, 913.659 268.948 C 919.131 267.142, 936.133 268.234, 943.465 270.862 C 951.415 273.711, 956.433 273.658, 959.399 270.692 C 960.668 269.423, 963.162 264.609, 964.942 259.994 C 968 252.065, 968.080 251.532, 966.399 250.302 C 964.217 248.707, 955.426 245.374, 948.015 243.333 C 940.221 241.186, 914.337 240.611, 906.462 242.409 M 279.500 244.161 C 278.400 244.766, 276.723 246.214, 275.772 247.380 C 274.181 249.333, 274.043 253.989, 274.022 306.324 L 274 363.148 288.475 362.824 C 308.333 362.380, 307.343 363.525, 308 340.225 L 308.500 322.500 334.500 322 L 360.500 321.500 360.786 311.806 C 361.065 302.305, 361.012 302.045, 358.119 298.806 L 355.168 295.500 331.584 295.199 L 308 294.897 308 282.449 L 308 270 338 270 L 368 270 368 259.934 C 368 242.135, 370.394 242.992, 320.800 243.030 C 294.155 243.051, 280.856 243.415, 279.500 244.161 M 521.775 244.559 C 520.276 245.372, 518.589 246.900, 518.025 247.953 C 517.360 249.197, 517 269.711, 517 306.434 L 517 363 530.250 362.996 C 541.658 362.993, 543.948 362.719, 546.723 361.027 C 550.682 358.613, 550.988 357.400, 551.273 343 L 551.500 331.500 560.154 331.212 L 568.807 330.925 578.530 345.212 C 583.878 353.071, 588.941 360.288, 589.782 361.250 C 591.130 362.794, 593.409 363, 609.155 363 C 618.970 363, 627 362.611, 627 362.135 C 627 361.659, 626.170 360.197, 625.155 358.885 C 624.141 357.573, 618.501 349.431, 612.623 340.792 L 601.936 325.084 605.082 323.457 C 609.741 321.048, 616.564 314.419, 619.445 309.504 C 624.725 300.493, 626.409 286.816, 623.574 275.960 C 619.231 259.330, 606.149 248.382, 586.073 244.573 C 574.443 242.367, 525.834 242.356, 521.775 244.559 M 642.374 245.354 C 640.203 247.222, 639.489 248.927, 638.921 253.604 C 637.887 262.105, 637.846 360.242, 638.875 361.848 C 640.247 363.989, 716.060 362.894, 724.913 360.605 C 737.032 357.472, 746.511 350.533, 750.326 342 C 753.251 335.458, 753.139 324.207, 750.080 317.273 C 747.604 311.661, 741.131 304.984, 735.620 302.356 L 732.220 300.735 737.907 295.117 C 746.399 286.728, 748.824 277.506, 745.490 266.279 C 743.500 259.578, 736.695 252.037, 729.612 248.683 C 719.582 243.934, 710.845 243, 676.445 243 L 645.112 243 642.374 245.354 M 768.704 244.596 C 767.166 245.430, 765.479 247.241, 764.954 248.621 C 764.390 250.105, 764 273.996, 764 307.065 L 764 363 812 363 L 860 363 860 352.556 C 860 342.959, 859.804 341.884, 857.588 339.306 L 855.176 336.500 826.588 336.206 L 798 335.912 798 325.456 L 798 315 824.500 315 L 851 315 851 305.950 C 851 295.847, 849.697 292.094, 845.528 290.195 C 843.744 289.382, 835.731 289, 820.453 289 L 798 289 798 279.500 L 798 270 829 270 L 860 270 860 259.934 C 860 242.099, 862.542 242.990, 811.800 243.040 C 777.738 243.074, 771.067 243.315, 768.704 244.596 M 673 278.947 L 673 290.138 688.930 289.819 C 703.253 289.532, 705.146 289.288, 707.680 287.404 C 711.321 284.698, 712.778 279.294, 711.015 275.036 C 708.813 269.720, 705.352 268.679, 688.250 268.192 L 673 267.757 673 278.947 M 433.479 269.977 C 408.514 273.699, 398.275 306.916, 416.086 326.404 C 422.631 333.565, 429.003 336.324, 439 336.324 C 448.930 336.324, 455.381 333.555, 461.770 326.552 C 467.842 319.896, 470.409 312.927, 470.444 303 C 470.479 293.202, 468.101 286.441, 462.382 280.080 C 454.936 271.798, 444.868 268.279, 433.479 269.977 M 551.750 270.555 C 551.337 270.983, 551 278.683, 551 287.667 L 551 304 564.184 304 C 575.545 304, 577.970 303.709, 581.718 301.895 C 589.529 298.113, 592.376 287.577, 587.937 278.876 C 584.811 272.749, 579.508 270.792, 564.500 270.228 C 557.900 269.980, 552.163 270.127, 551.750 270.555 M 674.250 314.588 C 673.357 315.001, 673 318.425, 673 326.583 L 673 338 687.250 337.940 C 704.003 337.870, 710.146 337.028, 713.797 334.302 C 717.429 331.590, 718.588 326.344, 716.604 321.595 C 714.251 315.962, 710.607 314.918, 691.593 314.425 C 682.742 314.196, 674.938 314.269, 674.250 314.588" stroke="none" fill="#2564a9" fill-rule="evenodd"/></svg>