<svg width="357" height="388" viewBox="0 0 357 388" fill="none" xmlns="http://www.w3.org/2000/svg">
<g clip-path="url(#clip0_176_4)">
<path d="M312.993 0L77.0906 85.9462L312.993 44.3505V0Z" fill="#FFE600"/>
<path d="M114.94 193.742H158.087V168.731H114.94V149.074H162.671L146.834 121.676H79.1505V240.793H174.609V213.396H114.936V193.742H114.94ZM238.144 121.68L217.874 160.553L197.653 121.68H158.087L199.777 193.745V240.797H235.456V193.745L277.203 121.68H238.144ZM277.978 374.219C277.978 375.057 277.921 376.115 277.867 376.507H261.884C262.163 380.188 264.68 381.696 267.529 381.696C269.207 381.696 270.77 381.193 272.113 379.853L276.807 383.813C274.347 386.881 270.602 387.996 267.25 387.996C259.539 387.996 255.123 382.084 255.123 374.33C255.123 365.905 260.321 360.549 266.804 360.549C273.733 360.549 277.982 366.628 277.982 374.216L277.978 374.219ZM261.995 371.375H271.384C271.159 368.417 269.26 366.411 266.579 366.411C263.395 366.411 262.163 369.201 261.995 371.375ZM357 374.219C357 375.057 356.943 376.115 356.889 376.507H340.906C341.185 380.188 343.702 381.696 346.551 381.696C348.228 381.696 349.792 381.193 351.134 379.853L355.829 383.813C353.369 386.881 349.624 387.996 346.272 387.996C338.561 387.996 334.145 382.084 334.145 374.33C334.145 365.905 339.343 360.549 345.826 360.549C352.755 360.549 357.004 366.628 357.004 374.216L357 374.219ZM341.017 371.375H350.406C350.181 368.417 348.282 366.411 345.601 366.411C342.417 366.411 341.185 369.201 341.017 371.375ZM327.715 378.068L332.074 382.195C329.839 385.039 326.766 387.996 321.568 387.996C314.36 387.996 309.048 382.252 309.048 374.33C309.048 367.077 313.464 360.549 321.678 360.549C326.373 360.549 329.615 362.669 332.017 366.24L327.547 370.759C325.984 368.695 324.306 367.077 321.625 367.077C317.991 367.077 316.091 370.146 316.091 374.219C316.091 378.011 317.769 381.414 321.678 381.414C324.081 381.414 326.094 380.131 327.715 378.068ZM266.911 334.33H260.428V332.488C258.975 334.106 256.629 334.886 254.28 334.886C247.462 334.886 244.891 329.976 244.891 322.891V307.994H251.485V322.331C251.485 325.902 252.213 328.579 255.901 328.579C259.589 328.579 260.317 325.788 260.317 322.552V307.991H266.911V334.323V334.33ZM287.478 326.633L286.528 333.329C285.186 334.387 282.73 334.89 281.109 334.89C277.086 334.89 273.955 331.879 273.955 327.078V314.302H270.156V307.998H273.955V301.138L280.548 297.792V308.002H286.807V314.306H280.548V325.353C280.548 327.641 281.498 328.479 283.119 328.479C284.74 328.479 286.418 327.641 287.478 326.636V326.633ZM187.329 334.33H180.735V319.994C180.735 316.423 179.953 313.8 176.265 313.8C172.577 313.8 171.738 316.198 171.738 319.826V334.33H165.145V301.138L171.738 297.792V309.84C173.191 308.39 174.98 307.442 177.943 307.442C184.93 307.442 187.332 312.798 187.332 319.491V334.33H187.329ZM305.024 387.441H298.206V373.104C298.206 369.422 297.367 366.967 293.679 366.967C290.212 366.967 289.095 369.03 289.095 372.936V387.441H282.276V361.108H289.095V362.894C290.491 361.5 292.561 360.552 295.521 360.552C302.675 360.552 305.021 366.076 305.021 372.548V387.444L305.024 387.441ZM219.744 358.824C221.925 358.824 223.657 357.095 223.657 354.918C223.657 352.741 221.925 351.012 219.744 351.012C217.563 351.012 215.831 352.741 215.831 354.918C215.831 357.095 217.563 358.824 219.744 358.824ZM45.4925 358.824C47.6738 358.824 49.4052 357.095 49.4052 354.918C49.4052 352.741 47.6738 351.012 45.4925 351.012C43.3112 351.012 41.5798 352.741 41.5798 354.918C41.5798 357.095 43.3112 358.824 45.4925 358.824ZM357 321.109C357 321.946 356.943 323.005 356.889 323.397H340.906C341.185 327.078 343.702 328.586 346.551 328.586C348.228 328.586 349.792 328.083 351.134 326.743L355.829 330.702C353.369 333.771 349.624 334.886 346.272 334.886C338.561 334.886 334.145 328.974 334.145 321.219C334.145 312.795 339.343 307.439 345.826 307.439C352.755 307.439 357.004 313.518 357.004 321.105L357 321.109ZM341.017 318.265H350.406C350.181 315.307 348.282 313.301 345.601 313.301C342.417 313.301 341.185 316.091 341.017 318.265ZM312.571 334.33H306.088V332.488C304.635 334.106 302.29 334.886 299.941 334.886C293.122 334.886 290.552 329.976 290.552 322.891V307.994H297.145V322.331C297.145 325.902 297.874 328.579 301.561 328.579C305.249 328.579 305.978 325.788 305.978 322.552V307.991H312.571V334.323V334.33ZM213.54 321.109C213.54 321.946 213.482 323.005 213.429 323.397H197.446C197.724 327.078 200.241 328.586 203.09 328.586C204.768 328.586 206.332 328.083 207.674 326.743L212.369 330.702C209.909 333.771 206.164 334.886 202.812 334.886C195.1 334.886 190.684 328.974 190.684 321.219C190.684 312.795 195.882 307.439 202.365 307.439C209.295 307.439 213.543 313.518 213.543 321.105L213.54 321.109ZM197.557 318.265H206.946C206.721 315.307 204.822 313.301 202.141 313.301C198.956 313.301 197.724 316.091 197.557 318.265ZM251.039 387.441H244.22V385.712C241.985 387.33 240.643 388 238.24 388C230.64 388 227.398 381.418 227.398 374.052C227.398 366.072 231.197 360.552 238.073 360.552C240.365 360.552 242.542 361.165 244.22 362.673V354.248L251.039 350.845V387.441ZM244.224 379.297V369.255C242.771 367.694 241.375 366.967 239.472 366.967C235.506 366.967 234.553 370.092 234.553 373.827C234.553 378.068 235.781 381.582 239.64 381.582C241.539 381.582 242.881 380.744 244.224 379.294V379.297ZM216.278 361.108V387.441H223.096V361.108H216.278ZM212.311 351.739V357.206C211.305 356.871 209.966 356.703 208.959 356.703C207.003 356.703 206.11 357.316 206.11 358.991V361.112H211.755V367.473H206.11V387.444H199.292V367.473H195.604V361.112H199.292V357.933C199.292 353.022 202.365 351.016 207.338 351.016C208.791 351.016 210.916 351.183 212.311 351.743V351.739ZM192.248 387.441H185.429V373.104C185.429 369.422 184.59 366.967 180.903 366.967C177.436 366.967 176.319 369.03 176.319 372.936V387.441H169.5V361.108H176.319V362.894C177.715 361.5 179.785 360.552 182.745 360.552C189.899 360.552 192.244 366.076 192.244 372.548V387.444L192.248 387.441ZM153.071 360.552C145.47 360.552 140.719 366.521 140.719 374.276C140.719 382.423 145.917 388 153.071 388C160.225 388 165.423 382.423 165.423 374.276C165.423 366.129 160.671 360.552 153.071 360.552ZM153.071 381.418C148.712 381.418 147.762 377.234 147.762 374.276C147.762 370.203 149.44 367.081 153.071 367.081C156.702 367.081 158.379 370.206 158.379 374.276C158.379 377.234 157.43 381.418 153.071 381.418ZM134.125 378.068L138.484 382.195C136.249 385.039 133.175 387.996 127.977 387.996C120.77 387.996 115.457 382.252 115.457 374.33C115.457 367.077 119.873 360.549 128.088 360.549C132.783 360.549 136.024 362.669 138.427 366.24L133.957 370.759C132.393 368.695 130.716 367.077 128.034 367.077C124.4 367.077 122.501 370.146 122.501 374.219C122.501 378.011 124.179 381.414 128.088 381.414C130.491 381.414 132.504 380.131 134.125 378.068ZM98.864 387.441H92.0453V373.104C92.0453 369.422 91.2064 366.967 87.5185 366.967C84.0521 366.967 82.8811 369.03 82.8811 372.936V387.441H76.0624V354.248L82.8811 350.845V362.894C84.1663 361.333 86.8474 360.552 89.4749 360.552C96.4043 360.552 98.864 366.019 98.864 372.548V387.444V387.441ZM71.8677 379.518L70.8609 386.378C69.4651 387.494 66.1093 387.996 64.3207 387.996C60.1866 387.996 57.2235 384.704 57.2235 380.131V367.466H52.6396V361.105H57.2235V354.244L64.0422 350.841V361.105H71.7534V367.466H64.0422V378.289C64.0422 380.687 64.9347 381.468 66.5555 381.468C68.1763 381.468 70.6896 380.63 71.8641 379.515L71.8677 379.518ZM42.0832 361.108V387.441H48.9019V361.108H42.0832ZM38.506 361.108L30.1808 387.441H23.9226L19.4529 371.429L14.9262 387.441H8.66796L0.3927 361.108H7.99323L11.9595 376.393L16.4291 361.108H22.6338L27.1034 376.393L31.1268 361.108H38.5024H38.506ZM243.217 298.682V304.092C241.707 303.7 240.704 303.533 239.808 303.533C237.462 303.533 236.959 304.37 236.959 305.71V307.998H241.428V314.359H236.959V334.33H230.365V314.359H227.123V307.998H230.365V304.819C230.365 300.243 232.768 297.902 238.358 297.902C240.147 297.902 241.6 298.237 243.221 298.682H243.217ZM162.124 326.633L161.175 333.329C159.832 334.387 157.487 334.89 155.866 334.89C151.843 334.89 148.712 331.879 148.712 327.078V314.302H144.128V307.998H148.712V301.138L155.306 297.792V308.002H161.453V314.306H155.306V325.353C155.306 327.641 156.255 328.479 157.876 328.479C159.497 328.479 161.061 327.641 162.124 326.636V326.633ZM131.444 321.109C131.444 321.946 131.387 323.005 131.333 323.397H115.907C116.186 327.078 118.756 328.586 121.608 328.586C123.286 328.586 124.793 328.083 126.135 326.743L130.83 330.702C128.649 333.603 124.682 334.886 121.162 334.886C113.619 334.886 109.146 328.974 109.146 321.273C109.146 313.572 114.008 307.439 120.88 307.439C128.256 307.439 131.444 314.135 131.444 321.105V321.109ZM116.018 318.265H125.407C125.128 315.307 123.393 313.301 120.545 313.301C117.528 313.301 116.186 316.091 116.018 318.265ZM106.015 321.223C106.015 327.973 103.219 334.89 95.7331 334.89C92.8271 334.89 91.0386 333.831 89.864 332.712V340.745L83.2702 344.038V307.998H89.864V309.783C91.5955 308.223 93.3841 307.442 95.8438 307.442C102.941 307.442 106.015 314.138 106.015 321.223ZM99.196 321.554C99.196 317.706 98.1893 313.8 94.223 313.8C92.3773 313.8 90.9243 314.637 89.864 316.141V326.184C90.9243 327.691 92.7129 328.582 94.6157 328.582C98.3035 328.582 99.1996 325.236 99.1996 321.554H99.196ZM78.6864 334.33H72.0926V332.488C70.5289 334.049 68.5154 334.886 65.945 334.886C60.7471 334.886 56.6666 331.54 56.6666 325.738C56.6666 319.936 60.6329 316.868 66.9482 316.868C68.6261 316.868 70.3576 317.093 72.089 317.927V316.533C72.089 314.078 70.4682 313.073 67.5622 313.073C65.4952 313.073 63.5389 313.575 61.4718 314.801L58.8443 310.115C61.6932 308.329 64.4314 307.439 67.955 307.439C74.6059 307.439 78.6864 310.674 78.6864 316.644V334.327V334.33ZM72.0926 326.633V323.286C70.7503 322.449 69.0188 322.171 67.6765 322.171C64.7705 322.171 63.3746 323.454 63.3746 325.574C63.3746 327.584 64.6598 329.202 67.1196 329.202C68.4048 329.202 70.6396 328.757 72.0926 326.636V326.633ZM53.0359 334.33H46.4421V319.994C46.4421 316.423 45.6603 313.8 41.9725 313.8C38.2847 313.8 37.4457 316.198 37.4457 319.826V334.33H30.8519V301.138L37.4457 297.792V309.84C38.8987 308.39 40.6873 307.442 43.6504 307.442C50.6369 307.442 53.0395 312.798 53.0395 319.491V334.33H53.0359ZM27.2177 323.789C27.2177 331.711 21.1808 334.89 14.0301 334.89C8.88573 334.89 3.18444 333.272 0 328.586L4.91946 324.234C7.2114 326.968 10.5065 328.251 13.8623 328.251C17.8286 328.251 20.1205 326.465 20.1205 323.956C20.1205 322.951 19.7278 321.946 18.0535 321.113C16.8254 320.5 15.3153 320.108 12.3522 319.384C10.5065 318.939 6.70803 318.044 4.35897 316.148C2.01348 314.252 1.34232 311.519 1.34232 309.121C1.34232 301.701 7.71477 298.69 13.973 298.69C19.3922 298.69 23.305 300.921 26.4359 304.099L21.5164 308.896C19.2244 306.608 16.9896 305.325 13.5232 305.325C10.5601 305.325 8.38236 306.273 8.38236 308.729C8.38236 309.787 8.77506 310.514 9.83535 311.127C11.0634 311.797 12.7984 312.299 15.4795 312.969C18.664 313.807 21.6271 314.53 24.0297 316.483C26.1538 318.212 27.2141 320.5 27.2141 323.792L27.2177 323.789ZM334.423 309.228L331.732 315.81C330.725 314.862 329.55 314.192 327.933 314.192C324.802 314.192 324.027 316.815 324.027 319.994V334.33H317.434V307.998H324.027V309.84C325.538 308.333 327.437 307.442 329.561 307.442C331.407 307.442 333.027 308.002 334.423 309.228Z" fill="black"/>
</g>
<defs>
<clipPath id="clip0_176_4">
<rect width="357" height="388" fill="white"/>
</clipPath>
</defs>
</svg>
