<?xml version="1.0" encoding="utf-8"?>
<!-- Generator: Adobe Illustrator 16.0.0, SVG Export Plug-In . SVG Version: 6.00 Build 0)  -->
<!DOCTYPE svg PUBLIC "-//W3C//DTD SVG 1.1//EN" "http://www.w3.org/Graphics/SVG/1.1/DTD/svg11.dtd">
<svg version="1.1" id="Layer_1" xmlns="http://www.w3.org/2000/svg" xmlns:xlink="http://www.w3.org/1999/xlink" x="0px" y="0px"
	 width="173px" height="35px" viewBox="0 0 173 35" enable-background="new 0 0 173 35" xml:space="preserve">
<g>
	<path fill-rule="evenodd" clip-rule="evenodd" fill="#3A3A39" d="M59.843,29.86c1.496,0,2.789-0.358,3.878-1.075
		c1.09-0.717,1.745-1.62,1.963-2.711v-2.242H60.03c-1.401,0-2.438,0.227-3.107,0.678c-0.67,0.451-1.005,1.176-1.005,2.172
		c0,0.967,0.351,1.736,1.052,2.313C57.67,29.57,58.629,29.86,59.843,29.86 M65.731,34.673v-2.944
		c-0.841,1.06-1.932,1.869-3.272,2.43C61.121,34.719,59.579,35,57.834,35c-2.648,0-4.75-0.725-6.308-2.173
		c-1.558-1.449-2.337-3.342-2.337-5.678c0-2.367,0.833-4.214,2.5-5.537c1.667-1.323,4.027-2.001,7.08-2.033h6.917v-0.467
		c0-1.339-0.445-2.376-1.332-3.108c-0.888-0.732-2.189-1.098-3.902-1.098c-2.336,0-4.829,0.733-7.477,2.197l-2.243-4.954
		c1.994-0.997,3.863-1.729,5.607-2.196c1.745-0.467,3.661-0.701,5.748-0.701c3.364,0,5.974,0.793,7.828,2.383
		c1.854,1.589,2.795,3.802,2.827,6.636l0.047,16.401H65.731z M45.094,16.916c-1.371-0.779-2.726-1.378-4.065-1.799
		c-1.339-0.42-2.539-0.631-3.598-0.631c-0.873,0-1.574,0.155-2.103,0.467c-0.53,0.312-0.795,0.779-0.795,1.402
		c0,0.686,0.358,1.215,1.075,1.589c0.716,0.374,1.884,0.794,3.504,1.261c1.776,0.529,3.24,1.052,4.393,1.565
		c1.153,0.515,2.15,1.278,2.991,2.291c0.841,1.012,1.261,2.343,1.261,3.994c0,2.491-0.958,4.432-2.874,5.818
		c-1.915,1.387-4.369,2.079-7.359,2.079c-2.056,0-4.035-0.303-5.935-0.912c-1.9-0.606-3.552-1.471-4.954-2.593l2.336-4.859
		c1.278,0.996,2.703,1.768,4.276,2.313c1.573,0.546,3.061,0.817,4.462,0.817c0.966,0,1.737-0.163,2.313-0.489
		c0.576-0.328,0.865-0.818,0.865-1.473c0-0.717-0.367-1.278-1.098-1.683c-0.732-0.405-1.909-0.841-3.529-1.309
		c-1.713-0.498-3.139-0.997-4.275-1.495c-1.137-0.498-2.111-1.254-2.921-2.266c-0.81-1.013-1.215-2.329-1.215-3.949
		c0-2.492,0.935-4.424,2.804-5.794c1.87-1.372,4.237-2.057,7.103-2.057c1.713,0,3.427,0.241,5.141,0.724
		c1.713,0.482,3.271,1.176,4.672,2.079L45.094,16.916z M16.56,13.828V9.532h7.196v7.01L16.56,13.828z M23.755,34.673H16.56V15.859
		l7.196,2.705V34.673z M3.586,0h7.196v34.673H3.586V0z"/>
	<path fill-rule="evenodd" clip-rule="evenodd" fill="#008EC8" d="M149.775,20.046c-0.062-1.651-0.592-2.975-1.589-3.971
		c-0.997-0.997-2.32-1.496-3.972-1.496c-1.558,0-2.858,0.49-3.902,1.472c-1.044,0.981-1.705,2.312-1.985,3.994H149.775z
		 M144.167,9.299c4.051,0,7.128,1.168,9.229,3.505c2.103,2.336,3.155,5.591,3.155,9.767c0,0.748-0.017,1.324-0.047,1.729h-18.038
		c0.405,1.589,1.184,2.827,2.337,3.715c1.152,0.888,2.539,1.331,4.159,1.331c1.184,0,2.32-0.226,3.411-0.678
		c1.09-0.451,2.071-1.112,2.943-1.985l3.785,3.832c-1.277,1.433-2.827,2.531-4.649,3.294c-1.822,0.764-3.854,1.146-6.098,1.146
		c-2.648,0-4.961-0.529-6.94-1.59c-1.978-1.059-3.504-2.554-4.579-4.485c-1.074-1.931-1.612-4.159-1.612-6.682
		c0-2.555,0.545-4.806,1.636-6.753c1.091-1.947,2.616-3.458,4.579-4.532C139.401,9.835,141.645,9.299,144.167,9.299z M119.371,9.252
		c2.805,0,5.04,0.871,6.706,2.616c1.667,1.746,2.501,4.081,2.501,7.009v15.795h-7.197v-13.69c0-1.59-0.443-2.844-1.331-3.763
		c-0.888-0.918-2.096-1.378-3.621-1.378c-1.776,0.031-3.179,0.647-4.206,1.845c-1.028,1.2-1.542,2.734-1.542,4.604v12.383h-7.196
		V9.532h7.196v4.393C112.425,10.873,115.322,9.314,119.371,9.252z M90.791,13.881V9.532h7.195v7.063L90.791,13.881z M97.986,34.673
		h-7.195v-18.76l7.195,2.704V34.673z M77.817,0h7.197v34.673h-7.197V0z"/>
	<path fill-rule="evenodd" clip-rule="evenodd" fill="#4BA9DF" d="M167.037,3.128c2.422,2.139,3.02,5.573,1.671,8.343l-3.705,0.104
		l-0.123-0.264c0.133-0.114,0.26-0.239,0.38-0.374c1.402-1.588,1.253-4.013-0.336-5.416c-1.271-1.123-3.078-1.172-4.472-0.398
		C161.313,4.348,163.701,2.779,167.037,3.128"/>
	<path fill="#4BA9DF" d="M168.353,12.091c1.481-2.342,1.165-5.634-0.343-7.911c-0.166-0.252-0.23-0.046-0.503,0.084l-1.859,0.887
		c-0.34,0.162-0.45,0.59-0.233,0.896c0.657,0.927,1.598,2.864-0.13,4.831c-1.067,1.215-2.739,1.584-4.173,1.061
		C161.218,11.988,164.711,13.546,168.353,12.091"/>
	<path fill="#0065A0" d="M158.559,14.205c2.871,1.897,6.775,1.439,9.119-1.214c0.039-0.044,0.078-0.09,0.116-0.135
		c-5.041,1.266-7.904-1.644-7.904-1.644c-1.388-1.226-1.673-3.235-0.778-4.778l-0.002,0.002
		C159.109,6.437,156.421,9.755,158.559,14.205"/>
	<path fill="#76C8D1" d="M157.776,13.606c-1.728-5.734,2.698-10.538,8.273-11.228c-0.202-0.137-0.394-0.255-0.464-0.292
		c-2.781-1.408-6.265-0.827-8.424,1.619C154.598,6.609,154.873,11.041,157.776,13.606"/>
	<path d="M157.54,32.266c0,0.376,0.096,0.729,0.283,1.056c0.189,0.328,0.448,0.585,0.774,0.773c0.328,0.189,0.679,0.282,1.053,0.282
		c0.379,0,0.729-0.095,1.054-0.284c0.323-0.188,0.581-0.445,0.771-0.768c0.19-0.323,0.284-0.677,0.284-1.06
		c0-0.377-0.094-0.729-0.282-1.053c-0.189-0.324-0.445-0.582-0.768-0.771c-0.323-0.191-0.677-0.285-1.06-0.285
		c-0.379,0-0.729,0.094-1.054,0.284c-0.324,0.189-0.581,0.444-0.771,0.768C157.636,31.531,157.54,31.884,157.54,32.266
		 M157.197,32.266c0-0.435,0.109-0.842,0.326-1.223c0.218-0.381,0.518-0.682,0.897-0.9c0.38-0.22,0.791-0.329,1.229-0.329
		c0.436,0,0.843,0.108,1.224,0.326c0.379,0.217,0.681,0.516,0.899,0.897c0.22,0.381,0.33,0.79,0.33,1.229
		c0,0.429-0.105,0.832-0.316,1.209c-0.212,0.376-0.507,0.677-0.888,0.902c-0.381,0.227-0.797,0.34-1.249,0.34
		c-0.45,0-0.865-0.112-1.246-0.338c-0.38-0.225-0.677-0.526-0.889-0.902C157.303,33.101,157.197,32.697,157.197,32.266z
		 M160.646,31.672c0,0.174-0.047,0.328-0.139,0.462s-0.224,0.233-0.39,0.298l0.775,1.29h-0.547l-0.675-1.156h-0.441v1.156h-0.482
		v-2.907h0.852c0.36,0,0.625,0.07,0.793,0.212C160.561,31.168,160.646,31.383,160.646,31.672z M159.229,32.165h0.353
		c0.174,0,0.313-0.045,0.419-0.135s0.158-0.205,0.158-0.344c0-0.164-0.047-0.28-0.141-0.352c-0.094-0.07-0.241-0.105-0.442-0.105
		h-0.347V32.165z"/>
</g>
</svg>
